<?xml version="1.0" standalone="no"?>
<!DOCTYPE svg PUBLIC "-//W3C//DTD SVG 20010904//EN"
 "http://www.w3.org/TR/2001/REC-SVG-20010904/DTD/svg10.dtd">
<svg version="1.0" xmlns="http://www.w3.org/2000/svg"
 width="1200.000000pt" height="1200.000000pt" viewBox="0 0 1200.000000 1200.000000"
 preserveAspectRatio="xMidYMid meet">

<g transform="translate(0.000000,1200.000000) scale(0.100000,-0.100000)"
fill="#FFFFFF" stroke="none">
<path d="M4200 8929 c-25 -4 -88 -21 -140 -37 -52 -16 -144 -44 -205 -62 -60
-17 -120 -35 -131 -40 -12 -5 -100 -32 -195 -60 -96 -28 -205 -62 -244 -75
-38 -13 -135 -42 -215 -65 -80 -22 -165 -50 -190 -61 l-44 -21 34 -29 c49 -41
118 -93 238 -178 60 -43 102 -80 102 -90 0 -18 -39 -81 -75 -121 -55 -61 -145
-265 -197 -445 -51 -177 -61 -510 -22 -718 18 -94 79 -269 138 -392 37 -77
148 -239 273 -395 47 -60 173 -170 222 -195 26 -13 78 -44 116 -70 365 -248
890 -317 1320 -174 138 46 322 132 386 181 24 19 68 47 97 63 54 29 239 202
304 284 l35 44 99 -99 c115 -116 210 -194 309 -251 263 -152 499 -229 767
-249 96 -7 97 -7 103 17 3 13 5 165 3 337 -2 246 -6 314 -16 321 -7 4 -59 11
-115 14 -56 4 -128 14 -161 22 -158 43 -345 177 -482 348 -79 97 -95 127 -124
232 -51 183 -53 199 -54 340 0 147 17 235 74 387 51 136 212 328 322 384 29
15 67 37 83 49 67 49 222 99 364 116 176 22 360 -12 511 -94 41 -22 101 -55
133 -71 33 -18 91 -63 133 -106 65 -65 84 -93 148 -220 99 -196 111 -243 111
-450 0 -143 -4 -176 -24 -245 -40 -137 -143 -335 -175 -335 -7 0 -30 11 -50
25 -21 14 -56 35 -79 47 -46 23 -199 132 -287 203 -30 25 -61 45 -67 45 -10 0
-13 -152 -13 -725 l0 -725 28 0 c15 1 45 8 67 16 22 8 123 39 225 70 102 30
210 64 240 75 30 10 138 44 240 74 102 31 221 66 265 80 44 13 120 31 168 40
97 17 197 51 197 66 0 19 -71 79 -216 182 -84 59 -155 115 -158 124 -4 10 4
27 22 47 80 87 208 355 252 526 35 139 41 203 41 401 0 208 -7 269 -48 414
-55 194 -107 304 -222 465 -44 63 -97 138 -116 167 -40 59 -119 138 -188 185
-314 218 -389 258 -601 322 -232 70 -484 83 -733 37 -204 -38 -475 -155 -618
-266 -38 -30 -101 -76 -138 -102 -69 -47 -200 -179 -220 -220 -5 -13 -16 -23
-24 -23 -7 0 -46 35 -87 78 -80 82 -120 116 -231 188 -38 25 -74 52 -80 58
-30 37 -226 132 -381 186 -140 48 -245 69 -392 77 l-112 6 2 -338 3 -338 25
-7 c14 -4 66 -13 115 -19 118 -16 281 -72 375 -129 98 -60 239 -204 307 -313
72 -117 114 -272 121 -451 5 -138 -4 -209 -46 -358 -33 -117 -108 -236 -220
-350 -114 -114 -212 -175 -345 -216 -138 -43 -217 -56 -337 -55 -144 0 -330
44 -456 109 -117 60 -287 225 -335 325 -16 34 -38 76 -49 93 -31 48 -68 163
-86 266 -33 189 9 441 95 577 16 25 37 64 45 86 22 52 44 75 64 68 10 -4 60
-37 112 -73 52 -37 119 -80 147 -95 29 -15 76 -48 105 -73 72 -61 95 -75 113
-68 13 5 15 91 15 709 0 552 -3 707 -12 714 -7 5 -33 6 -58 2z"/>
<path d="M6522 5075 c-90 -16 -192 -75 -257 -147 -63 -70 -108 -207 -108 -328
0 -97 38 -237 81 -302 30 -46 157 -126 252 -159 89 -31 258 -38 349 -14 323
83 472 407 325 701 -39 76 -135 179 -197 210 -102 52 -285 68 -445 39z m231
-251 c92 -31 146 -115 147 -227 0 -142 -87 -237 -218 -237 -77 0 -137 37 -176
110 -70 129 -26 285 99 349 48 25 86 26 148 5z"/>
<path d="M1296 5064 c-14 -14 -16 -69 -16 -458 0 -347 3 -446 13 -460 12 -16
33 -17 287 -14 300 5 317 7 405 68 63 44 70 60 70 176 0 93 -2 103 -28 142
-19 29 -45 51 -82 69 -30 15 -55 30 -55 34 0 4 19 20 43 36 62 41 89 100 85
184 -7 130 -90 209 -239 229 -41 5 -163 10 -271 10 -166 0 -199 -2 -212 -16z
m460 -48 c109 -9 184 -76 192 -171 9 -111 -41 -177 -148 -194 -93 -15 -423
-14 -438 1 -13 13 -17 334 -4 355 4 6 23 13 42 15 43 4 286 0 356 -6z m134
-462 c111 -51 152 -188 87 -286 -42 -62 -88 -72 -366 -76 -195 -3 -246 -1
-252 10 -14 22 -11 352 4 367 9 9 67 12 247 9 214 -3 239 -5 280 -24z"/>
<path d="M2610 5074 c-93 -16 -197 -78 -266 -157 -118 -137 -150 -350 -76
-515 28 -64 82 -137 115 -158 16 -10 52 -34 79 -51 89 -59 238 -85 353 -64 67
13 234 93 273 131 37 37 87 119 107 175 23 64 31 197 16 265 -31 144 -132 271
-269 337 -74 35 -82 37 -192 39 -63 1 -126 0 -140 -2z m287 -85 c93 -45 166
-116 210 -207 37 -74 38 -79 38 -187 0 -103 -2 -114 -32 -177 -60 -128 -147
-193 -296 -225 -83 -17 -162 -12 -265 18 -173 49 -293 278 -248 473 22 94 57
154 134 231 65 64 125 95 217 109 74 11 179 -4 242 -35z"/>
<path d="M3466 5064 c-14 -13 -16 -53 -16 -279 0 -296 10 -394 47 -478 22 -48
37 -66 87 -101 93 -66 143 -81 261 -80 207 3 319 90 355 279 7 39 10 164 8
360 l-3 300 -25 0 -25 0 -6 -340 c-4 -202 -10 -353 -17 -373 -22 -65 -54 -104
-106 -128 -110 -49 -239 -54 -341 -11 -61 25 -91 51 -116 99 -42 81 -49 148
-49 459 0 261 -2 298 -16 303 -21 8 -20 8 -38 -10z"/>
<path d="M4473 5073 c-20 -7 -16 -28 32 -175 25 -76 45 -148 45 -160 1 -13 8
-41 16 -63 8 -22 42 -119 75 -215 69 -200 107 -300 121 -317 6 -7 23 -13 39
-13 26 0 32 7 55 58 40 90 84 221 100 296 8 38 30 108 49 155 19 47 52 136 72
196 25 71 43 110 52 110 10 0 33 -52 69 -150 138 -379 173 -482 193 -558 24
-95 32 -107 69 -107 15 0 32 6 37 13 14 19 46 104 119 312 36 105 90 260 120
345 59 171 78 270 51 270 -9 0 -19 -6 -24 -12 -7 -12 -59 -157 -198 -553 -72
-208 -95 -265 -107 -265 -19 0 -49 85 -88 255 -6 27 -25 83 -42 125 -16 41
-59 158 -94 259 -35 102 -69 188 -76 193 -21 13 -44 9 -59 -8 -14 -18 -71
-172 -114 -314 -45 -146 -137 -423 -156 -467 -10 -24 -22 -43 -27 -43 -12 0
-36 61 -107 265 -85 245 -143 424 -157 489 -13 59 -38 89 -65 79z"/>
<path d="M7362 5067 c-9 -11 -12 -123 -10 -473 l3 -459 330 0 c250 0 342 3
380 14 69 19 172 77 192 108 38 58 33 207 -8 268 -13 18 -42 45 -65 61 -24 16
-45 34 -48 41 -3 6 11 21 30 32 71 42 98 169 56 263 -25 57 -93 109 -172 134
-79 24 -669 34 -688 11z m523 -242 c33 -32 32 -70 -2 -101 -25 -23 -32 -25
-122 -22 l-96 3 -3 59 c-2 32 -1 65 2 72 4 11 30 14 101 14 88 0 98 -2 120
-25z m51 -358 c30 -35 30 -59 0 -94 -24 -28 -25 -28 -148 -28 l-123 0 -3 64
c-5 97 -10 93 129 89 118 -3 121 -4 145 -31z"/>
<path d="M8417 5068 c-16 -12 -17 -49 -15 -473 l3 -460 150 0 150 0 5 100 c3
55 9 106 13 113 5 6 23 12 42 12 25 0 39 -7 57 -29 12 -16 54 -68 92 -115 l68
-86 154 0 c178 0 183 4 116 81 -41 46 -118 158 -128 184 -4 10 15 35 55 74 86
82 106 131 106 251 0 118 -20 168 -99 244 -104 102 -164 115 -522 116 -169 0
-235 -3 -247 -12z m475 -248 c55 -16 80 -52 76 -114 -3 -47 -6 -52 -43 -73
-32 -18 -56 -23 -115 -23 -46 0 -81 5 -88 12 -15 15 -16 161 -2 189 9 16 22
19 73 19 34 0 79 -5 99 -10z"/>
<path d="M9738 5068 c-18 -14 -191 -394 -215 -473 -20 -66 -137 -337 -168
-390 -45 -76 -45 -76 127 -73 l152 3 35 70 36 70 174 3 c111 1 178 -1 186 -8
7 -6 27 -40 44 -75 l31 -65 150 0 c177 0 170 -7 111 121 -21 46 -42 100 -46
119 -7 38 -53 146 -115 275 -54 110 -170 375 -170 386 0 5 -9 18 -20 29 -18
18 -33 20 -158 20 -95 0 -143 -4 -154 -12z m199 -418 c13 -36 22 -78 20 -95
l-2 -30 -70 0 -70 0 1 32 c2 44 65 164 84 161 9 -2 25 -31 37 -68z"/>
<path d="M5940 4217 c-31 -16 -37 -43 -14 -68 19 -21 64 -25 82 -7 19 19 14
55 -10 72 -27 19 -26 19 -58 3z"/>
<path d="M11970 50 c0 -5 5 -10 11 -10 5 0 7 5 4 10 -3 6 -8 10 -11 10 -2 0
-4 -4 -4 -10z"/>
</g>
</svg>
